<?xml version="1.0" standalone="no"?>
<!DOCTYPE svg PUBLIC "-//W3C//DTD SVG 20010904//EN"
 "http://www.w3.org/TR/2001/REC-SVG-20010904/DTD/svg10.dtd">
<svg version="1.0" xmlns="http://www.w3.org/2000/svg"
 width="500.000000pt" height="500.000000pt" viewBox="0 0 500.000000 500.000000"
 preserveAspectRatio="xMidYMid meet">

<g transform="translate(0.000000,500.000000) scale(0.100000,-0.100000)"
fill="#000000" stroke="none">
<path d="M2225 4081 c-16 -10 -43 -33 -60 -51 -43 -46 -119 -81 -187 -88 -47
-4 -75 1 -142 23 -104 34 -133 30 -206 -30 -99 -81 -214 -99 -331 -50 -72 31
-115 28 -167 -11 -65 -50 -79 -123 -40 -210 17 -39 21 -67 21 -134 -1 -95 11
-120 57 -120 51 0 65 30 65 144 0 84 -4 109 -23 150 -19 42 -20 52 -9 63 12
12 22 11 68 -8 44 -19 73 -23 154 -23 118 0 178 20 264 85 l54 41 66 -22 c156
-51 314 -17 438 94 l51 46 43 -17 c61 -23 208 -22 272 1 l48 17 57 -52 c31
-29 80 -63 107 -75 98 -45 229 -48 342 -8 l51 18 38 -34 c115 -101 312 -128
450 -62 54 25 63 7 36 -70 -12 -35 -24 -86 -28 -113 -12 -100 29 -229 98 -312
l36 -42 -25 -68 c-21 -59 -24 -81 -21 -164 3 -83 8 -104 35 -160 18 -36 53
-86 78 -112 l46 -46 -17 -48 c-12 -32 -18 -78 -18 -138 0 -60 6 -106 18 -138
l17 -48 -46 -46 c-25 -26 -60 -76 -78 -112 -28 -57 -32 -76 -34 -160 -3 -79 1
-107 19 -161 l23 -65 -42 -58 c-63 -87 -86 -156 -87 -257 -1 -66 4 -99 23
-148 33 -88 23 -98 -71 -65 -62 22 -85 25 -163 21 -103 -5 -157 -25 -242 -89
l-54 -40 -55 21 c-155 58 -325 22 -449 -95 l-45 -43 -62 20 c-74 23 -199 21
-262 -6 l-38 -16 -55 51 c-128 116 -275 146 -439 88 l-64 -23 -28 26 c-76 70
-174 108 -279 108 -69 0 -150 -17 -192 -40 -19 -10 -26 -9 -36 2 -11 11 -9 25
10 83 53 152 21 314 -83 427 l-24 26 21 61 c56 162 27 317 -83 439 -39 42 -54
52 -80 52 -38 0 -66 -26 -66 -59 0 -14 20 -45 49 -77 85 -93 105 -209 55 -326
-33 -78 -28 -125 15 -177 51 -60 80 -115 91 -171 11 -60 6 -102 -21 -173 -37
-93 -17 -174 53 -217 43 -26 104 -25 170 1 106 43 236 22 313 -50 38 -36 87
-61 118 -61 14 0 55 11 91 25 125 47 229 28 324 -60 31 -28 67 -57 79 -63 31
-17 76 -15 125 5 57 24 169 24 226 0 80 -32 116 -23 195 50 103 96 224 119
351 67 79 -33 118 -28 178 23 103 86 225 110 336 64 71 -28 128 -27 173 3 69
47 86 126 47 212 -16 37 -22 68 -22 124 0 84 17 126 85 212 33 42 39 57 39 98
0 28 -9 67 -22 96 -17 36 -22 67 -22 119 1 86 24 140 94 214 67 71 76 109 50
192 -25 81 -25 147 0 228 27 84 16 125 -51 196 -94 99 -117 195 -75 316 42
122 37 151 -41 244 -67 78 -80 204 -33 313 28 65 23 118 -15 168 -52 68 -115
77 -227 35 -103 -38 -199 -22 -293 48 -93 70 -127 76 -205 40 -112 -52 -244
-29 -342 60 -29 26 -63 53 -75 59 -31 17 -84 15 -129 -4 -50 -21 -155 -21
-213 0 -58 21 -109 20 -146 -3z"/>
<path d="M2330 3342 c-14 -11 -22 -29 -22 -47 0 -18 8 -36 22 -47 21 -17 51
-18 427 -18 l404 0 24 -25 25 -24 0 -684 c0 -659 -1 -686 -19 -708 l-19 -24
-683 -3 c-616 -2 -685 -4 -701 -19 -22 -19 -23 -62 -4 -89 14 -18 33 -19 708
-19 l693 0 48 28 c26 15 60 47 75 69 l27 42 3 705 c3 791 5 761 -69 824 -21
19 -56 39 -78 45 -26 8 -164 12 -439 12 -371 0 -401 -1 -422 -18z"/>
</g>
</svg>
